<svg width="163" height="22" viewBox="0 0 163 22" fill="none" xmlns="http://www.w3.org/2000/svg">
<path d="M7.08945 17.2718C5.83615 17.2718 4.6206 17.1057 3.4428 16.7735C2.2801 16.4262 1.3439 15.9807 0.6342 15.4371L1.87995 12.6738C2.55945 13.1721 3.3673 13.5723 4.3035 13.8743C5.2397 14.1763 6.1759 14.3273 7.1121 14.3273C8.154 14.3273 8.9241 14.1763 9.4224 13.8743C9.9207 13.5572 10.1699 13.1419 10.1699 12.6285C10.1699 12.251 10.0189 11.9415 9.71685 11.6999C9.42995 11.4432 9.05245 11.2393 8.58435 11.0883C8.13135 10.9373 7.51225 10.7712 6.72705 10.59C5.51905 10.3031 4.53 10.0162 3.7599 9.72935C2.9898 9.44245 2.3254 8.9819 1.7667 8.3477C1.2231 7.7135 0.9513 6.8679 0.9513 5.8109C0.9513 4.8898 1.20045 4.0593 1.69875 3.3194C2.19705 2.5644 2.9445 1.96795 3.9411 1.53005C4.9528 1.09215 6.18345 0.8732 7.63305 0.8732C8.64475 0.8732 9.6338 0.994 10.6002 1.2356C11.5666 1.4772 12.4122 1.8245 13.137 2.2775L12.0045 5.06345C10.5398 4.23295 9.0751 3.8177 7.6104 3.8177C6.5836 3.8177 5.82105 3.9838 5.32275 4.316C4.83955 4.6482 4.59795 5.0861 4.59795 5.6297C4.59795 6.1733 4.8773 6.581 5.436 6.8528C6.0098 7.1095 6.87805 7.3662 8.04075 7.6229C9.24875 7.9098 10.2378 8.1967 11.0079 8.4836C11.778 8.7705 12.4348 9.2235 12.9785 9.8426C13.5372 10.4617 13.8165 11.2997 13.8165 12.3567C13.8165 13.2627 13.5598 14.0932 13.0464 14.8482C12.5481 15.5881 11.7931 16.177 10.7814 16.6149C9.7697 17.0528 8.53905 17.2718 7.08945 17.2718ZM27.8979 4.8143V17H24.5457V15.5504C24.0776 16.0789 23.5189 16.4866 22.8696 16.7735C22.2203 17.0453 21.5181 17.1812 20.7631 17.1812C19.1625 17.1812 17.8941 16.7206 16.9579 15.7995C16.0217 14.8784 15.5536 13.5119 15.5536 11.6999V4.8143H19.087V11.179C19.087 13.142 19.91 14.1234 21.5559 14.1234C22.4015 14.1234 23.081 13.8516 23.5944 13.3081C24.1078 12.7494 24.3645 11.9264 24.3645 10.8392V4.8143H27.8979ZM37.9211 4.6331C39.0536 4.6331 40.0804 4.89735 41.0015 5.42585C41.9377 5.93925 42.67 6.6716 43.1985 7.6229C43.727 8.5591 43.9913 9.65385 43.9913 10.9071C43.9913 12.1604 43.727 13.2627 43.1985 14.214C42.67 15.1502 41.9377 15.8826 41.0015 16.4111C40.0804 16.9245 39.0536 17.1812 37.9211 17.1812C36.3658 17.1812 35.1427 16.6904 34.2518 15.7089V21.3941H30.7184V4.8143H34.0932V6.2186C34.969 5.1616 36.245 4.6331 37.9211 4.6331ZM37.3095 14.282C38.2155 14.282 38.9554 13.98 39.5292 13.376C40.1181 12.7569 40.4126 11.9339 40.4126 10.9071C40.4126 9.88035 40.1181 9.06495 39.5292 8.46095C38.9554 7.84185 38.2155 7.5323 37.3095 7.5323C36.4035 7.5323 35.6561 7.84185 35.0672 8.46095C34.4934 9.06495 34.2065 9.88035 34.2065 10.9071C34.2065 11.9339 34.4934 12.7569 35.0672 13.376C35.6561 13.98 36.4035 14.282 37.3095 14.282ZM53.1063 4.6331C54.2388 4.6331 55.2656 4.89735 56.1867 5.42585C57.1229 5.93925 57.8552 6.6716 58.3837 7.6229C58.9122 8.5591 59.1765 9.65385 59.1765 10.9071C59.1765 12.1604 58.9122 13.2627 58.3837 14.214C57.8552 15.1502 57.1229 15.8826 56.1867 16.4111C55.2656 16.9245 54.2388 17.1812 53.1063 17.1812C51.551 17.1812 50.3279 16.6904 49.437 15.7089V21.3941H45.9036V4.8143H49.2784V6.2186C50.1542 5.1616 51.4302 4.6331 53.1063 4.6331ZM52.4947 14.282C53.4007 14.282 54.1406 13.98 54.7144 13.376C55.3033 12.7569 55.5978 11.9339 55.5978 10.9071C55.5978 9.88035 55.3033 9.06495 54.7144 8.46095C54.1406 7.84185 53.4007 7.5323 52.4947 7.5323C51.5887 7.5323 50.8413 7.84185 50.2524 8.46095C49.6786 9.06495 49.3917 9.88035 49.3917 10.9071C49.3917 11.9339 49.6786 12.7569 50.2524 13.376C50.8413 13.98 51.5887 14.282 52.4947 14.282ZM66.8872 17.1812C65.6037 17.1812 64.4486 16.917 63.4218 16.3884C62.4101 15.8448 61.6173 15.0974 61.0435 14.1461C60.4697 13.1948 60.1828 12.1151 60.1828 10.9071C60.1828 9.69915 60.4697 8.6195 61.0435 7.6682C61.6173 6.7169 62.4101 5.977 63.4218 5.4485C64.4486 4.9049 65.6037 4.6331 66.8872 4.6331C68.1707 4.6331 69.3183 4.9049 70.33 5.4485C71.3417 5.977 72.1345 6.7169 72.7083 7.6682C73.2821 8.6195 73.569 9.69915 73.569 10.9071C73.569 12.1151 73.2821 13.1948 72.7083 14.1461C72.1345 15.0974 71.3417 15.8448 70.33 16.3884C69.3183 16.917 68.1707 17.1812 66.8872 17.1812ZM66.8872 14.282C67.7932 14.282 68.5331 13.98 69.1069 13.376C69.6958 12.7569 69.9903 11.9339 69.9903 10.9071C69.9903 9.88035 69.6958 9.06495 69.1069 8.46095C68.5331 7.84185 67.7932 7.5323 66.8872 7.5323C65.9812 7.5323 65.2338 7.84185 64.6449 8.46095C64.056 9.06495 63.7615 9.88035 63.7615 10.9071C63.7615 11.9339 64.056 12.7569 64.6449 13.376C65.2338 13.98 65.9812 14.282 66.8872 14.282ZM78.8526 6.42245C79.2754 5.83355 79.8417 5.3881 80.5514 5.0861C81.2762 4.7841 82.1067 4.6331 83.0429 4.6331V7.8947C82.6503 7.8645 82.386 7.8494 82.2501 7.8494C81.2384 7.8494 80.4457 8.1363 79.8719 8.7101C79.2981 9.2688 79.0112 10.1144 79.0112 11.2469V17H75.4778V4.8143H78.8526V6.42245ZM92.0294 16.4111C91.6821 16.6678 91.2518 16.8641 90.7384 17C90.2401 17.1208 89.7191 17.1812 89.1755 17.1812C87.7108 17.1812 86.5859 16.8113 85.8007 16.0713C85.0155 15.3314 84.6229 14.2442 84.6229 12.8098V2.11895H88.1563V5.0861H91.1687V7.8041H88.1563V12.7644C88.1563 13.2778 88.2846 13.678 88.5413 13.9649C88.798 14.2367 89.168 14.3726 89.6512 14.3726C90.1948 14.3726 90.678 14.2216 91.1008 13.9196L92.0294 16.4111ZM99.3342 14.3499C99.9684 14.3499 100.527 14.2593 101.01 14.0781C101.509 13.8818 101.969 13.5798 102.392 13.1721L104.272 15.2106C103.124 16.5243 101.448 17.1812 99.2436 17.1812C97.8695 17.1812 96.654 16.917 95.597 16.3884C94.54 15.8448 93.7246 15.0974 93.1508 14.1461C92.577 13.1948 92.2901 12.1151 92.2901 10.9071C92.2901 9.71425 92.5694 8.64215 93.1281 7.69085C93.7019 6.72445 94.4796 5.977 95.4611 5.4485C96.4577 4.9049 97.5751 4.6331 98.8133 4.6331C99.976 4.6331 101.033 4.88225 101.984 5.38055C102.936 5.86375 103.691 6.57345 104.249 7.50965C104.823 8.43075 105.11 9.5255 105.11 10.7939L96.0953 12.5379C96.352 13.1419 96.7521 13.5949 97.2957 13.8969C97.8544 14.1989 98.5339 14.3499 99.3342 14.3499ZM98.8133 7.3058C97.9224 7.3058 97.1976 7.5927 96.6389 8.1665C96.0802 8.7403 95.7857 9.53305 95.7555 10.5447L101.69 9.3896C101.524 8.7554 101.184 8.24955 100.671 7.87205C100.157 7.49455 99.5381 7.3058 98.8133 7.3058ZM119.444 0.193699V17H116.069V15.5957C115.194 16.6527 113.925 17.1812 112.264 17.1812C111.117 17.1812 110.075 16.9245 109.138 16.4111C108.217 15.8977 107.493 15.1653 106.964 14.214C106.436 13.2627 106.171 12.1604 106.171 10.9071C106.171 9.65385 106.436 8.55155 106.964 7.60025C107.493 6.64895 108.217 5.9166 109.138 5.4032C110.075 4.8898 111.117 4.6331 112.264 4.6331C113.819 4.6331 115.035 5.12385 115.911 6.10535V0.193699H119.444ZM112.876 14.282C113.767 14.282 114.507 13.98 115.095 13.376C115.684 12.7569 115.979 11.9339 115.979 10.9071C115.979 9.88035 115.684 9.06495 115.095 8.46095C114.507 7.84185 113.767 7.5323 112.876 7.5323C111.97 7.5323 111.222 7.84185 110.633 8.46095C110.044 9.06495 109.75 9.88035 109.75 10.9071C109.75 11.9339 110.044 12.7569 110.633 13.376C111.222 13.98 111.97 14.282 112.876 14.282ZM135.426 4.6331C136.558 4.6331 137.585 4.89735 138.506 5.42585C139.442 5.93925 140.175 6.6716 140.703 7.6229C141.232 8.5591 141.496 9.65385 141.496 10.9071C141.496 12.1604 141.232 13.2627 140.703 14.214C140.175 15.1502 139.442 15.8826 138.506 16.4111C137.585 16.9245 136.558 17.1812 135.426 17.1812C133.75 17.1812 132.474 16.6527 131.598 15.5957V17H128.223V0.193699H131.756V6.10535C132.647 5.12385 133.87 4.6331 135.426 4.6331ZM134.814 14.282C135.72 14.282 136.46 13.98 137.034 13.376C137.623 12.7569 137.917 11.9339 137.917 10.9071C137.917 9.88035 137.623 9.06495 137.034 8.46095C136.46 7.84185 135.72 7.5323 134.814 7.5323C133.908 7.5323 133.161 7.84185 132.572 8.46095C131.998 9.06495 131.711 9.88035 131.711 10.9071C131.711 11.9339 131.998 12.7569 132.572 13.376C133.161 13.98 133.908 14.282 134.814 14.282ZM155.685 4.8143V14.9615C155.685 17.1963 155.118 18.8573 153.986 19.9445C152.853 21.0317 151.207 21.5753 149.048 21.5753C147.901 21.5753 146.813 21.4319 145.787 21.145C144.775 20.8581 143.922 20.4428 143.227 19.8992L144.631 17.3624C145.145 17.7852 145.771 18.1174 146.511 18.359C147.251 18.6006 147.999 18.7214 148.754 18.7214C149.931 18.7214 150.792 18.4496 151.336 17.906C151.879 17.3624 152.151 16.5319 152.151 15.4145V15.0068C151.698 15.4598 151.162 15.8071 150.543 16.0487C149.924 16.2903 149.26 16.4111 148.55 16.4111C146.949 16.4111 145.681 15.9581 144.745 15.0521C143.808 14.131 143.34 12.7569 143.34 10.9298V4.8143H146.874V10.4088C146.874 12.3869 147.697 13.376 149.343 13.376C150.188 13.376 150.868 13.1042 151.381 12.5606C151.894 12.0019 152.151 11.1789 152.151 10.0917V4.8143H155.685ZM159.841 9.04985C159.222 9.04985 158.701 8.83845 158.279 8.41565C157.856 7.99285 157.644 7.46435 157.644 6.83015C157.644 6.18085 157.856 5.6599 158.279 5.2673C158.701 4.8596 159.222 4.65575 159.841 4.65575C160.461 4.65575 160.981 4.8596 161.404 5.2673C161.827 5.6599 162.038 6.18085 162.038 6.83015C162.038 7.46435 161.827 7.99285 161.404 8.41565C160.981 8.83845 160.461 9.04985 159.841 9.04985ZM159.841 17.1812C159.222 17.1812 158.701 16.9698 158.279 16.547C157.856 16.1242 157.644 15.5957 157.644 14.9615C157.644 14.3122 157.856 13.7912 158.279 13.3986C158.701 12.9909 159.222 12.7871 159.841 12.7871C160.461 12.7871 160.981 12.9909 161.404 13.3986C161.827 13.7912 162.038 14.3122 162.038 14.9615C162.038 15.5957 161.827 16.1242 161.404 16.547C160.981 16.9698 160.461 17.1812 159.841 17.1812Z" fill="black"/>
</svg>
